<?xml version="1.0" ?><!DOCTYPE svg  PUBLIC '-//W3C//DTD SVG 1.1//EN'  'http://www.w3.org/Graphics/SVG/1.1/DTD/svg11.dtd'><svg height="100%" style="fill-rule:evenodd;clip-rule:evenodd;stroke-linejoin:round;stroke-miterlimit:1.41421;" version="1.1" viewBox="0 0 100 126" width="100%" xml:space="preserve" xmlns="http://www.w3.org/2000/svg" xmlns:serif="http://www.serif.com/" xmlns:xlink="http://www.w3.org/1999/xlink"><clipPath id="_clip1"><rect height="125" width="100" x="0" y="0.04"/></clipPath><g clip-path="url(#_clip1)"><path d="M100,42.077c0,-16.313 -13.224,-29.537 -29.537,-29.537c-12.909,0 -28.017,0 -40.926,0c-16.313,0 -29.537,13.224 -29.537,29.537c0,12.909 0,28.017 0,40.926c0,16.313 13.224,29.537 29.537,29.537c12.909,0 28.017,0 40.926,0c16.313,0 29.537,-13.224 29.537,-29.537c0,-12.909 0,-28.017 0,-40.926Z" style="fill:#4aff95;"/><path d="M71.8,78.24l5.5,-5.8l-27.3,-25.6l-27.3,25.6l5.5,5.8l21.8,-20.4l21.8,20.4Z" style="fill:#020000;fill-opacity:0.5;fill-rule:nonzero;"/></g></svg>